<svg width="566" height="165" viewBox="0 0 566 165" fill="none" xmlns="http://www.w3.org/2000/svg">
<g clip-path="url(#clip0_8_2)">
<path d="M27.6741 90.4853C22.9878 85.799 22.9878 78.201 27.6741 73.5147L71.5147 29.6741C76.201 24.9878 83.7989 24.9878 88.4852 29.6741L132.326 73.5147C137.012 78.201 137.012 85.799 132.326 90.4853L88.4852 134.326C83.7989 139.012 76.201 139.012 71.5147 134.326L27.6741 90.4853Z" fill="white"/>
<path d="M74.3431 15.532L13.532 76.3431V76.3431C8.84567 71.6569 8.84567 64.0589 13.532 59.3726L57.3726 15.532C62.0589 10.8457 69.6568 10.8457 74.3431 15.532V15.532Z" fill="white"/>
<path d="M74.3431 148.468C69.6568 153.154 62.0589 153.154 57.3726 148.468L13.532 104.627C8.84566 99.9411 8.84566 92.3431 13.532 87.6569V87.6569L74.3431 148.468V148.468Z" fill="white"/>
<path d="M147.882 77.7574L87.071 16.9462V16.9462C91.7573 12.2599 99.3553 12.2599 104.042 16.9462L147.882 60.7868C152.568 65.4731 152.568 73.0711 147.882 77.7574V77.7574Z" fill="white"/>
<path d="M87.071 147.054L146.468 87.6569V87.6569C151.154 92.3431 151.154 99.9411 146.468 104.627L104.042 147.054C99.3553 151.74 91.7573 151.74 87.071 147.054V147.054Z" fill="white"/>
<path d="M178.164 73.902L177.262 61.848L183.986 61.438C186.009 61.3287 187.457 60.864 188.332 60.044C189.261 59.1693 189.726 57.748 189.726 55.78V15.19H204.814V55.534C204.814 66.7953 198.719 72.7813 186.528 73.492L178.164 73.902ZM236.271 73.902C231.351 73.902 227.087 73.0547 223.479 71.36C219.926 69.6107 217.193 67.1507 215.279 63.98C213.366 60.8093 212.409 57.0647 212.409 52.746C212.409 48.646 213.311 45.0107 215.115 41.84C216.974 38.6693 219.489 36.2093 222.659 34.46C225.885 32.656 229.547 31.754 233.647 31.754C237.693 31.754 241.191 32.6013 244.143 34.296C247.15 35.9907 249.446 38.4233 251.031 41.594C252.671 44.71 253.491 48.3727 253.491 52.582V55.78H226.349C226.841 58.404 227.935 60.29 229.629 61.438C231.324 62.586 233.675 63.16 236.681 63.16C238.759 63.16 240.918 62.8593 243.159 62.258C245.455 61.602 247.478 60.6727 249.227 59.47L252.835 69.064C250.758 70.54 248.216 71.7153 245.209 72.59C242.203 73.4647 239.223 73.902 236.271 73.902ZM234.303 41.184C232.117 41.184 230.313 41.84 228.891 43.152C227.525 44.464 226.65 46.3773 226.267 48.892H241.519C241.355 46.3227 240.645 44.4093 239.387 43.152C238.185 41.84 236.49 41.184 234.303 41.184ZM262.903 73V43.398H255.277V32.656H262.903C263.177 26.9707 265.008 22.7067 268.397 19.864C271.787 16.9667 276.925 15.3267 283.813 14.944L288.733 14.698L289.553 25.112L285.781 25.358C282.611 25.5767 280.424 26.1507 279.221 27.08C278.073 28.0093 277.499 29.458 277.499 31.426V32.656H287.667V43.398H277.499V73H262.903ZM293.333 73V43.398H285.707V32.656H293.333C293.606 26.9707 295.438 22.7067 298.827 19.864C302.216 16.9667 307.355 15.3267 314.243 14.944L319.163 14.698L319.983 25.112L316.211 25.358C313.04 25.5767 310.854 26.1507 309.651 27.08C308.503 28.0093 307.929 29.458 307.929 31.426V32.656H318.097V43.398H307.929V73H293.333ZM343.976 73.902C339.056 73.902 334.792 73.0547 331.184 71.36C327.631 69.6107 324.898 67.1507 322.984 63.98C321.071 60.8093 320.114 57.0647 320.114 52.746C320.114 48.646 321.016 45.0107 322.82 41.84C324.679 38.6693 327.194 36.2093 330.364 34.46C333.59 32.656 337.252 31.754 341.352 31.754C345.398 31.754 348.896 32.6013 351.848 34.296C354.855 35.9907 357.151 38.4233 358.736 41.594C360.376 44.71 361.196 48.3727 361.196 52.582V55.78H334.054C334.546 58.404 335.64 60.29 337.334 61.438C339.029 62.586 341.38 63.16 344.386 63.16C346.464 63.16 348.623 62.8593 350.864 62.258C353.16 61.602 355.183 60.6727 356.932 59.47L360.54 69.064C358.463 70.54 355.921 71.7153 352.914 72.59C349.908 73.4647 346.928 73.902 343.976 73.902ZM342.008 41.184C339.822 41.184 338.018 41.84 336.596 43.152C335.23 44.464 334.355 46.3773 333.972 48.892H349.224C349.06 46.3227 348.35 44.4093 347.092 43.152C345.89 41.84 344.195 41.184 342.008 41.184ZM367.485 73V32.656H381.671V39.462C383.529 34.8153 387.547 32.2733 393.725 31.836L397.743 31.508L398.563 43.808L390.609 44.546C387.711 44.8193 385.607 45.6393 384.295 47.006C382.983 48.318 382.327 50.286 382.327 52.91V73H367.485ZM418.711 73.902C414.994 73.902 411.55 73.5193 408.379 72.754C405.263 71.9887 402.612 70.9227 400.425 69.556L403.787 60.126C405.81 61.274 408.16 62.2307 410.839 62.996C413.518 63.7067 416.169 64.062 418.793 64.062C420.816 64.062 422.264 63.7887 423.139 63.242C424.014 62.6407 424.451 61.8753 424.451 60.946C424.451 60.126 424.15 59.5247 423.549 59.142C423.002 58.7047 422.21 58.3767 421.171 58.158L412.069 56.682C408.68 56.1353 406.056 54.9053 404.197 52.992C402.338 51.0787 401.409 48.5913 401.409 45.53C401.409 42.6873 402.202 40.2547 403.787 38.232C405.372 36.1547 407.586 34.5693 410.429 33.476C413.272 32.328 416.524 31.754 420.187 31.754C423.084 31.754 425.954 32.1093 428.797 32.82C431.64 33.476 434.127 34.5693 436.259 36.1L432.651 45.366C431.066 44.2727 429.098 43.3707 426.747 42.66C424.396 41.8947 422.292 41.512 420.433 41.512C418.192 41.512 416.606 41.84 415.677 42.496C414.748 43.0973 414.283 43.8353 414.283 44.71C414.283 46.186 415.294 47.088 417.317 47.416L426.419 48.974C429.918 49.5207 432.596 50.7233 434.455 52.582C436.368 54.386 437.325 56.846 437.325 59.962C437.325 64.39 435.63 67.834 432.241 70.294C428.852 72.6993 424.342 73.902 418.711 73.902ZM463.737 73.902C459.254 73.902 455.345 73.0547 452.011 71.36C448.676 69.6653 446.079 67.2327 444.221 64.062C442.362 60.8913 441.433 57.1467 441.433 52.828C441.433 48.4547 442.362 44.71 444.221 41.594C446.079 38.4233 448.676 35.9907 452.011 34.296C455.345 32.6013 459.254 31.754 463.737 31.754C468.219 31.754 472.128 32.6013 475.463 34.296C478.797 35.9907 481.367 38.4233 483.171 41.594C485.029 44.71 485.959 48.4547 485.959 52.828C485.959 57.1467 485.029 60.8913 483.171 64.062C481.367 67.2327 478.797 69.6653 475.463 71.36C472.128 73.0547 468.219 73.902 463.737 73.902ZM463.737 63.16C465.923 63.16 467.727 62.34 469.149 60.7C470.57 59.06 471.281 56.436 471.281 52.828C471.281 49.1653 470.57 46.5413 469.149 44.956C467.727 43.316 465.923 42.496 463.737 42.496C461.495 42.496 459.664 43.316 458.243 44.956C456.821 46.5413 456.111 49.1653 456.111 52.828C456.111 56.436 456.821 59.06 458.243 60.7C459.664 62.34 461.495 63.16 463.737 63.16ZM492.647 73V32.656H506.833V38.15C508.254 36.0727 510.085 34.4873 512.327 33.394C514.568 32.3007 517.083 31.754 519.871 31.754C524.681 31.754 528.235 33.1753 530.531 36.018C532.881 38.8607 534.057 43.234 534.057 49.138V73H519.461V49.712C519.461 47.252 519.023 45.5027 518.149 44.464C517.329 43.4253 516.099 42.906 514.459 42.906C512.272 42.906 510.523 43.6167 509.211 45.038C507.899 46.4047 507.243 48.2633 507.243 50.614V73H492.647ZM183.412 145V87.19H195.958L214.408 120.318L232.858 87.19H245.076V145H231.464V113.594L218.262 136.472H210.062L197.024 113.922V145H183.412ZM276.711 145.902C271.791 145.902 267.527 145.055 263.919 143.36C260.365 141.611 257.632 139.151 255.719 135.98C253.805 132.809 252.849 129.065 252.849 124.746C252.849 120.646 253.751 117.011 255.555 113.84C257.413 110.669 259.928 108.209 263.099 106.46C266.324 104.656 269.987 103.754 274.087 103.754C278.132 103.754 281.631 104.601 284.583 106.296C287.589 107.991 289.885 110.423 291.471 113.594C293.111 116.71 293.931 120.373 293.931 124.582V127.78H266.789C267.281 130.404 268.374 132.29 270.069 133.438C271.763 134.586 274.114 135.16 277.121 135.16C279.198 135.16 281.357 134.859 283.599 134.258C285.895 133.602 287.917 132.673 289.667 131.47L293.275 141.064C291.197 142.54 288.655 143.715 285.649 144.59C282.642 145.465 279.663 145.902 276.711 145.902ZM274.743 113.184C272.556 113.184 270.752 113.84 269.331 115.152C267.964 116.464 267.089 118.377 266.707 120.892H281.959C281.795 118.323 281.084 116.409 279.827 115.152C278.624 113.84 276.929 113.184 274.743 113.184ZM300.137 97.686V84.484H315.553V97.686H300.137ZM292.757 160.826L291.773 150.576L295.791 150.084C297.486 149.865 298.716 149.346 299.481 148.526C300.246 147.706 300.629 146.449 300.629 144.754V104.656H315.225V142.704C315.225 146.749 314.624 150.029 313.421 152.544C312.273 155.059 310.305 156.945 307.517 158.202C304.784 159.459 301.066 160.252 296.365 160.58L292.757 160.826ZM323.762 145V104.656H338.358V145H323.762ZM326.304 99.326L334.586 82.516H348.28L335.652 99.326H326.304ZM360.847 145.902C357.731 145.902 354.97 145.328 352.565 144.18C350.214 143.032 348.355 141.474 346.989 139.506C345.677 137.483 345.021 135.187 345.021 132.618C345.021 129.721 345.786 127.425 347.317 125.73C348.847 123.981 351.307 122.751 354.697 122.04C358.086 121.275 362.596 120.892 368.227 120.892H371.343V119.744C371.343 117.776 370.823 116.382 369.785 115.562C368.801 114.742 367.079 114.332 364.619 114.332C362.541 114.332 360.245 114.66 357.731 115.316C355.216 115.972 352.756 116.983 350.351 118.35L346.661 108.756C348.027 107.772 349.777 106.897 351.909 106.132C354.041 105.367 356.282 104.793 358.633 104.41C360.983 103.973 363.197 103.754 365.275 103.754C371.999 103.754 376.973 105.203 380.199 108.1C383.479 110.997 385.119 115.562 385.119 121.794V145H371.507V139.26C370.796 141.337 369.511 142.977 367.653 144.18C365.794 145.328 363.525 145.902 360.847 145.902ZM364.127 136.39C366.149 136.39 367.844 135.734 369.211 134.422C370.632 133.11 371.343 131.388 371.343 129.256V127.78H368.227C365.001 127.78 362.623 128.135 361.093 128.846C359.617 129.502 358.879 130.568 358.879 132.044C358.879 133.301 359.316 134.34 360.191 135.16C361.12 135.98 362.432 136.39 364.127 136.39Z" fill="white"/>
</g>
<defs>
<clipPath id="clip0_8_2">
<rect width="566" height="165" fill="white"/>
</clipPath>
</defs>
</svg>
