<svg width="566" height="145" viewBox="0 0 566 145" fill="none" xmlns="http://www.w3.org/2000/svg">
<g clip-path="url(#clip0_3_25)">
<rect width="566" height="145" fill="white"/>
<path d="M37 41C37 34.3726 42.3726 29 49 29H111C117.627 29 123 34.3726 123 41V103C123 109.627 117.627 115 111 115H49C42.3726 115 37 109.627 37 103V41Z" fill="#6247AA"/>
<path d="M123 21L37 21V21C37 14.3726 42.3726 9 49 9L111 9C117.627 9 123 14.3726 123 21V21Z" fill="#6247AA"/>
<path d="M29 115C22.3726 115 17 109.627 17 103L17 41C17 34.3726 22.3726 29 29 29V29L29 115V115Z" fill="#6247AA"/>
<path d="M131 117L131 31V31C137.627 31 143 36.3726 143 43L143 105C143 111.627 137.627 117 131 117V117Z" fill="#6247AA"/>
<path d="M39 123H123V123C123 129.627 117.627 135 111 135H51C44.3726 135 39 129.627 39 123V123Z" fill="#6247AA"/>
<path d="M169.082 65.469C167.831 65.5137 166.849 65.1787 166.134 64.464C165.419 63.7493 165.062 62.8337 165.062 61.717C165.062 60.8683 165.33 60.1313 165.866 59.506C166.357 58.836 167.094 58.4787 168.077 58.434L170.087 58.3C172.052 58.166 173.526 57.563 174.509 56.491C175.536 55.3743 176.05 53.7887 176.05 51.734V21.584C176.05 20.1547 176.407 19.0827 177.122 18.368C177.881 17.6087 178.953 17.229 180.338 17.229C181.723 17.229 182.772 17.6087 183.487 18.368C184.246 19.0827 184.626 20.1547 184.626 21.584V51.667C184.626 54.481 184.112 56.8707 183.085 58.836C182.102 60.8013 180.628 62.3423 178.663 63.459C176.698 64.531 174.263 65.1563 171.36 65.335L169.082 65.469ZM210.253 65.67C206.546 65.67 203.352 64.9777 200.672 63.593C197.992 62.2083 195.915 60.243 194.441 57.697C193.012 55.151 192.297 52.136 192.297 48.652C192.297 45.2573 192.989 42.287 194.374 39.741C195.803 37.195 197.746 35.2073 200.203 33.778C202.704 32.304 205.541 31.567 208.712 31.567C211.035 31.567 213.112 31.9467 214.943 32.706C216.819 33.4653 218.405 34.5597 219.7 35.989C221.04 37.4183 222.045 39.1603 222.715 41.215C223.43 43.225 223.787 45.503 223.787 48.049C223.787 48.853 223.497 49.4783 222.916 49.925C222.38 50.327 221.598 50.528 220.571 50.528H199.064V45.704H217.891L216.819 46.709C216.819 44.6543 216.506 42.9347 215.881 41.55C215.3 40.1653 214.429 39.1157 213.268 38.401C212.151 37.6417 210.744 37.262 209.047 37.262C207.171 37.262 205.563 37.7087 204.223 38.602C202.928 39.4507 201.923 40.679 201.208 42.287C200.538 43.8503 200.203 45.7263 200.203 47.915V48.384C200.203 52.0467 201.052 54.7937 202.749 56.625C204.491 58.4117 207.037 59.305 210.387 59.305C211.548 59.305 212.844 59.171 214.273 58.903C215.747 58.5903 217.132 58.0767 218.427 57.362C219.365 56.826 220.191 56.6027 220.906 56.692C221.621 56.7367 222.179 56.9823 222.581 57.429C223.028 57.8757 223.296 58.434 223.385 59.104C223.474 59.7293 223.34 60.377 222.983 61.047C222.67 61.717 222.112 62.2977 221.308 62.789C219.745 63.7717 217.936 64.5087 215.881 65C213.871 65.4467 211.995 65.67 210.253 65.67ZM236.721 65.536C235.381 65.536 234.331 65.1787 233.572 64.464C232.857 63.7047 232.5 62.6327 232.5 61.248V38.535H229.418C228.346 38.535 227.519 38.267 226.939 37.731C226.358 37.1503 226.068 36.3687 226.068 35.386C226.068 34.3587 226.358 33.577 226.939 33.041C227.519 32.505 228.346 32.237 229.418 32.237H234.912L232.5 34.448V32.17C232.5 27.5693 233.661 24.13 235.984 21.852C238.306 19.5293 241.656 18.167 246.034 17.765L248.312 17.564C249.205 17.4747 249.92 17.631 250.456 18.033C250.992 18.3903 251.349 18.8817 251.528 19.507C251.706 20.0877 251.729 20.6907 251.595 21.316C251.461 21.9413 251.17 22.4997 250.724 22.991C250.322 23.4377 249.786 23.6833 249.116 23.728L248.178 23.795C245.632 23.9737 243.778 24.6213 242.617 25.738C241.455 26.8547 240.875 28.552 240.875 30.83V33.309L239.803 32.237H246.57C247.642 32.237 248.468 32.505 249.049 33.041C249.629 33.577 249.92 34.3587 249.92 35.386C249.92 36.3687 249.629 37.1503 249.049 37.731C248.468 38.267 247.642 38.535 246.57 38.535H240.875V61.248C240.875 64.1067 239.49 65.536 236.721 65.536ZM259.621 65.536C258.281 65.536 257.231 65.1787 256.472 64.464C255.757 63.7047 255.4 62.6327 255.4 61.248V38.535H252.318C251.246 38.535 250.42 38.267 249.839 37.731C249.258 37.1503 248.968 36.3687 248.968 35.386C248.968 34.3587 249.258 33.577 249.839 33.041C250.42 32.505 251.246 32.237 252.318 32.237H257.812L255.4 34.448V32.17C255.4 27.5693 256.561 24.13 258.884 21.852C261.207 19.5293 264.557 18.167 268.934 17.765L271.212 17.564C272.105 17.4747 272.82 17.631 273.356 18.033C273.892 18.3903 274.249 18.8817 274.428 19.507C274.607 20.0877 274.629 20.6907 274.495 21.316C274.361 21.9413 274.071 22.4997 273.624 22.991C273.222 23.4377 272.686 23.6833 272.016 23.728L271.078 23.795C268.532 23.9737 266.678 24.6213 265.517 25.738C264.356 26.8547 263.775 28.552 263.775 30.83V33.309L262.703 32.237H269.47C270.542 32.237 271.368 32.505 271.949 33.041C272.53 33.577 272.82 34.3587 272.82 35.386C272.82 36.3687 272.53 37.1503 271.949 37.731C271.368 38.267 270.542 38.535 269.47 38.535H263.775V61.248C263.775 64.1067 262.39 65.536 259.621 65.536ZM292.891 65.67C289.183 65.67 285.99 64.9777 283.31 63.593C280.63 62.2083 278.553 60.243 277.079 57.697C275.649 55.151 274.935 52.136 274.935 48.652C274.935 45.2573 275.627 42.287 277.012 39.741C278.441 37.195 280.384 35.2073 282.841 33.778C285.342 32.304 288.178 31.567 291.35 31.567C293.672 31.567 295.749 31.9467 297.581 32.706C299.457 33.4653 301.042 34.5597 302.338 35.989C303.678 37.4183 304.683 39.1603 305.353 41.215C306.067 43.225 306.425 45.503 306.425 48.049C306.425 48.853 306.134 49.4783 305.554 49.925C305.018 50.327 304.236 50.528 303.209 50.528H281.702V45.704H300.529L299.457 46.709C299.457 44.6543 299.144 42.9347 298.519 41.55C297.938 40.1653 297.067 39.1157 295.906 38.401C294.789 37.6417 293.382 37.262 291.685 37.262C289.809 37.262 288.201 37.7087 286.861 38.602C285.565 39.4507 284.56 40.679 283.846 42.287C283.176 43.8503 282.841 45.7263 282.841 47.915V48.384C282.841 52.0467 283.689 54.7937 285.387 56.625C287.129 58.4117 289.675 59.305 293.025 59.305C294.186 59.305 295.481 59.171 296.911 58.903C298.385 58.5903 299.769 58.0767 301.065 57.362C302.003 56.826 302.829 56.6027 303.544 56.692C304.258 56.7367 304.817 56.9823 305.219 57.429C305.665 57.8757 305.933 58.434 306.023 59.104C306.112 59.7293 305.978 60.377 305.621 61.047C305.308 61.717 304.75 62.2977 303.946 62.789C302.382 63.7717 300.573 64.5087 298.519 65C296.509 65.4467 294.633 65.67 292.891 65.67ZM317.345 65.536C315.96 65.536 314.888 65.1787 314.129 64.464C313.414 63.7047 313.057 62.6327 313.057 61.248V35.922C313.057 34.5373 313.414 33.4877 314.129 32.773C314.844 32.0583 315.849 31.701 317.144 31.701C318.439 31.701 319.444 32.0583 320.159 32.773C320.874 33.4877 321.231 34.5373 321.231 35.922V40.143H320.561C321.186 37.463 322.415 35.4307 324.246 34.046C326.077 32.6613 328.512 31.835 331.549 31.567C332.487 31.4777 333.224 31.7233 333.76 32.304C334.341 32.84 334.676 33.6887 334.765 34.85C334.854 35.9667 334.586 36.8823 333.961 37.597C333.38 38.267 332.487 38.669 331.281 38.803L329.807 38.937C327.082 39.205 325.028 40.0537 323.643 41.483C322.258 42.8677 321.566 44.833 321.566 47.379V61.248C321.566 62.6327 321.209 63.7047 320.494 64.464C319.779 65.1787 318.73 65.536 317.345 65.536ZM350.96 65.67C349.04 65.67 347.007 65.469 344.863 65.067C342.719 64.665 340.799 63.9727 339.101 62.99C338.387 62.5433 337.873 62.0297 337.56 61.449C337.292 60.8237 337.181 60.2207 337.225 59.64C337.315 59.0147 337.538 58.4787 337.895 58.032C338.297 57.5853 338.789 57.295 339.369 57.161C339.995 57.027 340.665 57.1387 341.379 57.496C343.166 58.3447 344.841 58.9477 346.404 59.305C347.968 59.6177 349.509 59.774 351.027 59.774C353.171 59.774 354.757 59.4167 355.784 58.702C356.856 57.9427 357.392 56.96 357.392 55.754C357.392 54.7267 357.035 53.945 356.32 53.409C355.65 52.8283 354.623 52.404 353.238 52.136L346.538 50.863C343.769 50.327 341.647 49.322 340.173 47.848C338.744 46.3293 338.029 44.3863 338.029 42.019C338.029 39.875 338.61 38.0213 339.771 36.458C340.977 34.8947 342.63 33.6887 344.729 32.84C346.829 31.9913 349.241 31.567 351.965 31.567C353.931 31.567 355.762 31.7903 357.459 32.237C359.201 32.639 360.876 33.2867 362.484 34.18C363.154 34.5373 363.601 35.0063 363.824 35.587C364.092 36.1677 364.159 36.7707 364.025 37.396C363.891 37.9767 363.623 38.5127 363.221 39.004C362.819 39.4507 362.306 39.741 361.68 39.875C361.1 39.9643 360.43 39.8303 359.67 39.473C358.286 38.7583 356.946 38.2447 355.65 37.932C354.4 37.6193 353.194 37.463 352.032 37.463C349.844 37.463 348.213 37.8427 347.141 38.602C346.114 39.3613 345.6 40.3663 345.6 41.617C345.6 42.555 345.913 43.3367 346.538 43.962C347.164 44.5873 348.124 45.0117 349.419 45.235L356.119 46.508C359.023 47.044 361.211 48.0267 362.685 49.456C364.204 50.8853 364.963 52.806 364.963 55.218C364.963 58.4787 363.69 61.047 361.144 62.923C358.598 64.7543 355.204 65.67 350.96 65.67ZM386.623 65.67C383.228 65.67 380.28 64.9777 377.779 63.593C375.278 62.2083 373.335 60.243 371.95 57.697C370.565 55.1063 369.873 52.069 369.873 48.585C369.873 45.9497 370.253 43.6047 371.012 41.55C371.816 39.4507 372.955 37.664 374.429 36.19C375.903 34.6713 377.667 33.5323 379.722 32.773C381.777 31.969 384.077 31.567 386.623 31.567C390.018 31.567 392.966 32.2593 395.467 33.644C397.968 35.0287 399.911 36.994 401.296 39.54C402.681 42.086 403.373 45.101 403.373 48.585C403.373 51.2203 402.971 53.5877 402.167 55.687C401.408 57.7863 400.291 59.5953 398.817 61.114C397.343 62.588 395.579 63.727 393.524 64.531C391.469 65.2903 389.169 65.67 386.623 65.67ZM386.623 59.305C388.276 59.305 389.727 58.903 390.978 58.099C392.229 57.295 393.189 56.1113 393.859 54.548C394.574 52.94 394.931 50.9523 394.931 48.585C394.931 45.0117 394.172 42.354 392.653 40.612C391.134 38.8253 389.124 37.932 386.623 37.932C384.97 37.932 383.519 38.334 382.268 39.138C381.017 39.8973 380.035 41.081 379.32 42.689C378.65 44.2523 378.315 46.2177 378.315 48.585C378.315 52.1137 379.074 54.7937 380.593 56.625C382.112 58.4117 384.122 59.305 386.623 59.305ZM414.44 65.536C413.1 65.536 412.072 65.1787 411.358 64.464C410.643 63.7047 410.286 62.6327 410.286 61.248V35.922C410.286 34.5373 410.643 33.4877 411.358 32.773C412.072 32.0583 413.077 31.701 414.373 31.701C415.668 31.701 416.673 32.0583 417.388 32.773C418.102 33.4877 418.46 34.5373 418.46 35.922V40.478L417.723 38.803C418.705 36.4357 420.224 34.649 422.279 33.443C424.378 32.1923 426.745 31.567 429.381 31.567C432.016 31.567 434.182 32.0583 435.88 33.041C437.577 34.0237 438.85 35.52 439.699 37.53C440.547 39.4953 440.972 41.9967 440.972 45.034V61.248C440.972 62.6327 440.614 63.7047 439.9 64.464C439.185 65.1787 438.158 65.536 436.818 65.536C435.478 65.536 434.428 65.1787 433.669 64.464C432.954 63.7047 432.597 62.6327 432.597 61.248V45.436C432.597 42.89 432.105 41.0363 431.123 39.875C430.185 38.7137 428.711 38.133 426.701 38.133C424.244 38.133 422.279 38.9147 420.805 40.478C419.375 41.9967 418.661 44.029 418.661 46.575V61.248C418.661 64.1067 417.254 65.536 414.44 65.536ZM175.179 123.536C173.928 123.536 172.968 123.179 172.298 122.464C171.628 121.749 171.293 120.767 171.293 119.516V79.249C171.293 77.9537 171.65 76.971 172.365 76.301C173.08 75.5863 174.062 75.229 175.313 75.229C176.43 75.229 177.301 75.4523 177.926 75.899C178.596 76.301 179.199 77.0157 179.735 78.043L196.284 108.662H194.14L210.689 78.043C211.225 77.0157 211.806 76.301 212.431 75.899C213.056 75.4523 213.927 75.229 215.044 75.229C216.295 75.229 217.255 75.5863 217.925 76.301C218.595 76.971 218.93 77.9537 218.93 79.249V119.516C218.93 120.767 218.595 121.749 217.925 122.464C217.3 123.179 216.339 123.536 215.044 123.536C213.793 123.536 212.833 123.179 212.163 122.464C211.493 121.749 211.158 120.767 211.158 119.516V88.495H212.632L198.562 114.156C198.115 114.915 197.646 115.474 197.155 115.831C196.664 116.188 195.994 116.367 195.145 116.367C194.296 116.367 193.604 116.188 193.068 115.831C192.532 115.429 192.063 114.871 191.661 114.156L177.457 88.428H179.065V119.516C179.065 120.767 178.73 121.749 178.06 122.464C177.435 123.179 176.474 123.536 175.179 123.536ZM244.669 123.67C240.962 123.67 237.768 122.978 235.088 121.593C232.408 120.208 230.331 118.243 228.857 115.697C227.428 113.151 226.713 110.136 226.713 106.652C226.713 103.257 227.405 100.287 228.79 97.741C230.219 95.195 232.162 93.2073 234.619 91.778C237.12 90.304 239.957 89.567 243.128 89.567C245.451 89.567 247.528 89.9467 249.359 90.706C251.235 91.4653 252.821 92.5597 254.116 93.989C255.456 95.4183 256.461 97.1603 257.131 99.215C257.846 101.225 258.203 103.503 258.203 106.049C258.203 106.853 257.913 107.478 257.332 107.925C256.796 108.327 256.014 108.528 254.987 108.528H233.48V103.704H252.307L251.235 104.709C251.235 102.654 250.922 100.935 250.297 99.55C249.716 98.1653 248.845 97.1157 247.684 96.401C246.567 95.6417 245.16 95.262 243.463 95.262C241.587 95.262 239.979 95.7087 238.639 96.602C237.344 97.4507 236.339 98.679 235.624 100.287C234.954 101.85 234.619 103.726 234.619 105.915V106.384C234.619 110.047 235.468 112.794 237.165 114.625C238.907 116.412 241.453 117.305 244.803 117.305C245.964 117.305 247.26 117.171 248.689 116.903C250.163 116.59 251.548 116.077 252.843 115.362C253.781 114.826 254.607 114.603 255.322 114.692C256.037 114.737 256.595 114.982 256.997 115.429C257.444 115.876 257.712 116.434 257.801 117.104C257.89 117.729 257.756 118.377 257.399 119.047C257.086 119.717 256.528 120.298 255.724 120.789C254.161 121.772 252.352 122.509 250.297 123C248.287 123.447 246.411 123.67 244.669 123.67ZM260.815 135.663C259.833 135.752 259.029 135.596 258.403 135.194C257.778 134.837 257.354 134.368 257.13 133.787C256.862 133.206 256.773 132.603 256.862 131.978C256.952 131.353 257.22 130.794 257.666 130.303C258.068 129.856 258.627 129.611 259.341 129.566C261.351 129.387 262.803 128.807 263.696 127.824C264.634 126.886 265.103 125.434 265.103 123.469V93.922C265.103 92.5373 265.461 91.4877 266.175 90.773C266.935 90.0583 267.984 89.701 269.324 89.701C270.664 89.701 271.692 90.0583 272.406 90.773C273.121 91.4877 273.478 92.5373 273.478 93.922V122.732C273.478 125.591 273.009 127.936 272.071 129.767C271.178 131.598 269.793 132.983 267.917 133.921C266.086 134.859 263.719 135.44 260.815 135.663ZM269.257 83.537C267.694 83.537 266.466 83.1573 265.572 82.398C264.724 81.594 264.299 80.4997 264.299 79.115C264.299 77.6857 264.724 76.5913 265.572 75.832C266.466 75.0727 267.694 74.693 269.257 74.693C270.865 74.693 272.094 75.0727 272.942 75.832C273.791 76.5913 274.215 77.6857 274.215 79.115C274.215 80.4997 273.791 81.594 272.942 82.398C272.094 83.1573 270.865 83.537 269.257 83.537ZM286.328 123.469C284.988 123.469 283.961 123.067 283.246 122.263C282.532 121.459 282.174 120.342 282.174 118.913V94.324C282.174 92.85 282.532 91.7333 283.246 90.974C283.961 90.17 284.988 89.768 286.328 89.768C287.668 89.768 288.696 90.17 289.41 90.974C290.17 91.7333 290.549 92.85 290.549 94.324V118.913C290.549 120.342 290.192 121.459 289.477 122.263C288.763 123.067 287.713 123.469 286.328 123.469ZM289.477 85.48C289.031 86.1053 288.495 86.4627 287.869 86.552C287.244 86.6413 286.641 86.5297 286.06 86.217C285.48 85.9043 285.055 85.4577 284.787 84.877C284.564 84.2963 284.631 83.6487 284.988 82.934L290.08 72.951C290.482 72.1023 291.018 71.5663 291.688 71.343C292.358 71.075 293.051 71.0303 293.765 71.209C294.48 71.3877 295.083 71.7227 295.574 72.214C296.11 72.7053 296.423 73.3083 296.512 74.023C296.646 74.693 296.468 75.3853 295.976 76.1L289.477 85.48ZM310.038 123.67C307.671 123.67 305.549 123.223 303.673 122.33C301.842 121.392 300.39 120.141 299.318 118.578C298.291 117.015 297.777 115.25 297.777 113.285C297.777 110.873 298.403 108.975 299.653 107.59C300.904 106.161 302.936 105.133 305.75 104.508C308.564 103.883 312.339 103.57 317.073 103.57H320.423V108.394H317.14C314.371 108.394 312.16 108.528 310.507 108.796C308.855 109.064 307.671 109.533 306.956 110.203C306.286 110.828 305.951 111.722 305.951 112.883C305.951 114.357 306.465 115.563 307.492 116.501C308.52 117.439 309.949 117.908 311.78 117.908C313.254 117.908 314.55 117.573 315.666 116.903C316.828 116.188 317.743 115.228 318.413 114.022C319.083 112.816 319.418 111.431 319.418 109.868V102.163C319.418 99.9297 318.927 98.3217 317.944 97.339C316.962 96.3563 315.309 95.865 312.986 95.865C311.691 95.865 310.284 96.0213 308.765 96.334C307.291 96.6467 305.728 97.1827 304.075 97.942C303.227 98.344 302.467 98.4557 301.797 98.277C301.172 98.0983 300.681 97.741 300.323 97.205C299.966 96.6243 299.787 95.999 299.787 95.329C299.787 94.659 299.966 94.0113 300.323 93.386C300.681 92.716 301.284 92.2247 302.132 91.912C304.187 91.0633 306.152 90.4603 308.028 90.103C309.949 89.7457 311.691 89.567 313.254 89.567C316.47 89.567 319.106 90.0583 321.16 91.041C323.26 92.0237 324.823 93.52 325.85 95.53C326.878 97.4953 327.391 100.041 327.391 103.168V119.248C327.391 120.633 327.056 121.705 326.386 122.464C325.716 123.179 324.756 123.536 323.505 123.536C322.255 123.536 321.272 123.179 320.557 122.464C319.887 121.705 319.552 120.633 319.552 119.248V116.032H320.088C319.776 117.595 319.15 118.958 318.212 120.119C317.319 121.236 316.18 122.107 314.795 122.732C313.411 123.357 311.825 123.67 310.038 123.67Z" fill="#6247AA"/>
</g>
<defs>
<clipPath id="clip0_3_25">
<rect width="566" height="145" fill="white"/>
</clipPath>
</defs>
</svg>
