<svg width="16" height="16" viewBox="0 0 16 16" fill="none" xmlns="http://www.w3.org/2000/svg">
<rect width="16" height="16" rx="8" fill="#06255C"/>
<path d="M7.01534 6.96992H8.99088V5.49676C8.68031 5.11271 7.36457 5.1476 7.01534 5.49676V6.96992Z" fill="white"/>
<path d="M12.4512 3.75268C11.1046 2.95451 9.5681 2.53334 8.00272 2.53334C6.43734 2.53334 4.90079 2.95451 3.55419 3.75268C3.31587 4.5056 3.18518 5.48921 3.18518 6.33607C3.18518 9.28462 4.76273 11.9755 7.01533 13.0948C7.33246 13.2526 7.66293 13.3819 8.00287 13.4815C8.343 13.382 8.67363 13.2525 8.99086 13.0945C11.243 11.9754 12.821 9.28447 12.821 6.33607C12.8209 5.48921 12.6892 4.5056 12.4512 3.75268ZM9.51367 10.3494L8.99086 11.9824V7.95822C8.68029 7.57387 7.36456 7.60891 7.01533 7.95822V11.9824L6.49259 10.3473C5.56254 9.33233 4.8786 7.89761 4.8786 6.33607C4.87822 5.91168 4.92041 5.48832 5.00454 5.07234C5.94227 4.6303 6.96614 4.40107 8.00283 4.40107C9.03953 4.40107 10.0634 4.6303 11.0011 5.07234C11.0856 5.48827 11.128 5.91165 11.1278 6.33607C11.1277 7.89865 10.4448 9.33418 9.51367 10.3494Z" fill="white"/>
</svg>
