<svg width="1080" height="1080" viewBox="0 0 1080 1080" fill="none" xmlns="http://www.w3.org/2000/svg">
<rect width="1080" height="1080" rx="540" fill="#06255C"/>
<path d="M473.535 470.47H606.883V371.031C585.92 345.108 497.108 347.463 473.535 371.031V470.47Z" fill="white"/>
<path d="M840.46 253.306C749.562 199.429 645.847 171 540.184 171C434.521 171 330.804 199.429 239.908 253.306C223.821 304.128 215 370.521 215 427.684C215 626.711 321.484 808.346 473.535 883.896C494.941 894.548 517.248 903.279 540.194 910C563.153 903.284 585.471 894.543 606.883 883.881C758.904 808.341 865.418 626.701 865.418 427.684C865.413 370.521 856.522 304.128 840.46 253.306ZM642.173 698.581L606.883 808.811V537.179C585.92 511.236 497.108 513.601 473.535 537.179V808.811L438.25 698.441C375.472 629.932 329.305 533.088 329.305 427.684C329.28 399.038 332.128 370.461 337.807 342.383C401.103 312.545 470.215 297.072 540.192 297.072C610.169 297.072 679.28 312.545 742.576 342.383C748.277 370.458 751.143 399.036 751.128 427.684C751.118 533.158 705.021 630.057 642.173 698.581Z" fill="white"/>
</svg>
