<svg width="1080" height="1080" viewBox="0 0 1080 1080" fill="none" xmlns="http://www.w3.org/2000/svg">
<path d="M455.955 452.247H623.045V327.647C596.778 295.164 485.493 298.115 455.955 327.647V452.247Z" fill="#0D988C"/>
<path d="M915.726 180.132C801.828 112.622 671.869 77 539.469 77C407.068 77 277.107 112.622 163.211 180.132C143.053 243.814 132 327.008 132 398.636C132 648.024 265.429 875.621 455.955 970.288C482.778 983.635 510.729 994.575 539.481 1003C568.25 994.582 596.215 983.629 623.045 970.269C813.533 875.614 947 648.012 947 398.636C946.994 327.008 935.853 243.814 915.726 180.132ZM667.265 738.081L623.045 876.203V535.837C596.778 503.329 485.493 506.293 455.955 535.837V876.203L411.742 737.905C333.078 652.06 275.229 530.711 275.229 398.636C275.197 362.741 278.766 326.933 285.882 291.749C365.195 254.361 451.794 234.973 539.478 234.973C627.162 234.973 713.761 254.361 793.075 291.749C800.218 326.929 803.808 362.738 803.789 398.636C803.777 530.799 746.016 652.216 667.265 738.081Z" fill="#0D988C"/>
</svg>
